PathFileType	3	(X/Y/Z)	RCH0000002 BBF 11.c3d
DataRate	CameraRate	NumFrames	NumMarkers	Units	OrigDataRate	OrigDataStartFrame	OrigNumFrames
100.0	100.0	12	23	mm	100.0	484	502
Frame#	Time	T2			T10			MAN			LASI			RASI			LPSI			RPSI			LPAT			LKNE			LANK			LMED			LTOE			RPAT			RKNE			RANK			RMED			RHEE			RTOE			LHEE			RTHI			LTHI			RTIB			LTIB			
		X1	Y1	Z1	X2	Y2	Z2	X3	Y3	Z3	X4	Y4	Z4	X5	Y5	Z5	X6	Y6	Z6	X7	Y7	Z7	X8	Y8	Z8	X9	Y9	Z9	X10	Y10	Z10	X11	Y11	Z11	X12	Y12	Z12	X13	Y13	Z13	X14	Y14	Z14	X15	Y15	Z15	X16	Y16	Z16	X17	Y17	Z17	X18	Y18	Z18	X19	Y19	Z19	X20	Y20	Z20	X21	Y21	Z21	X22	Y22	Z22	X23	Y23	Z23	

484	4.830	2098.50551	-88.62315	978.03532	2112.43316	-85.26046	787.36791	2231.28950	-68.65689	951.01503	2228.19753	-24.91806	636.98226	2214.56744	-199.28392	667.60950	2110.54304	-58.06735	685.99307	2107.30166	-127.58497	702.38342	2330.88700	-67.25400	407.06701	2299.01071	-10.30727	354.88349	2266.58671	7.09026	86.69734	2274.65327	-63.25031	96.56612	2317.55300	-24.24271	81.73591	2145.89902	-150.27228	369.05640	2095.54725	-206.19589	350.77191	1987.82893	-203.73813	92.23127	1974.91180	-137.59100	111.06966	1946.99384	-180.11417	137.17370	2023.85105	-160.50042	72.29142	2227.52343	-37.83657	111.64613	2146.92317	-273.17089	451.84679	2247.03483	60.39469	468.11017	2046.31985	-272.21289	237.99097	2283.09324	59.94047	247.25841	
485	4.840	2107.19831	-86.51948	975.57634	2122.50513	-84.38146	784.86703	2240.27849	-67.45291	948.98344	2239.64736	-25.18190	635.15391	2224.65526	-199.53079	665.77785	2121.49242	-57.34124	683.65930	2117.74039	-126.91877	699.97401	2340.32975	-70.44043	404.01765	2309.58622	-12.61955	351.82913	2280.39451	5.35773	83.02357	2287.37520	-65.05589	93.05523	2331.16517	-26.37877	78.87942	2155.69035	-150.47828	366.54208	2104.66457	-205.95940	349.10241	1990.76822	-204.06154	93.17302	1978.58251	-137.92949	112.30927	1951.40652	-180.35617	139.22742	2026.04924	-160.82134	72.00315	2240.43588	-39.24047	107.44805	2155.80012	-273.08114	450.19180	2259.18421	58.79716	465.26259	2052.67871	-272.22923	237.66542	2295.76496	57.82567	243.89696	
486	4.850	2115.81685	-84.30386	973.08208	2132.85382	-83.67265	782.39775	2249.20773	-66.21448	947.12820	2251.17790	-25.31618	633.53871	2235.09105	-199.70065	663.76110	2132.60305	-56.77138	681.55237	2128.44713	-126.43911	697.58157	2349.40075	-73.37986	400.75720	2319.61635	-14.70918	348.70382	2291.67621	3.71329	79.68446	2297.67661	-66.75424	89.88886	2342.25370	-28.41012	76.13740	2166.59658	-150.65017	363.74087	2114.89896	-205.60610	347.07040	1994.57205	-204.50183	94.13365	1983.07206	-138.42874	113.59325	1956.87179	-180.80732	141.39640	2028.79616	-161.19589	71.59169	2251.06419	-40.55649	103.82214	2165.41913	-272.91384	448.32187	2271.10226	57.39270	462.47720	2060.29406	-272.23465	237.16733	2307.05111	55.84400	240.66433	
487	4.860	2124.37756	-82.04548	970.62667	2143.43763	-83.17531	780.03227	2258.08266	-64.94917	945.48925	2262.71244	-25.29326	632.20688	2245.84614	-199.77052	661.58506	2143.80391	-56.38321	679.73695	2139.37056	-126.17027	695.25806	2358.08860	-75.88415	397.43804	2329.07647	-16.41400	345.65639	2300.54476	2.37126	76.74935	2305.65190	-68.13634	87.14919	2350.92150	-30.14878	73.58789	2178.55499	-150.79859	360.68833	2126.19134	-205.14943	344.70041	1999.31810	-205.03379	95.10025	1988.46375	-139.05697	114.89997	1963.47027	-181.42464	143.64476	2032.15184	-161.60825	71.05564	2259.49767	-41.55949	100.83831	2175.74228	-272.66752	446.25724	2282.69192	56.29916	459.89152	2069.14865	-272.22518	236.49294	2316.98834	54.19004	237.66266	
488	4.870	2132.89864	-79.82015	968.28810	2154.20427	-82.92330	777.84472	2266.91060	-63.66751	944.10287	2274.16767	-25.08581	631.22085	2256.88174	-199.71370	659.28795	2155.01892	-56.19673	678.27357	2150.45140	-126.12905	693.06090	2366.36490	-77.76221	394.20861	2337.92324	-17.57216	342.83016	2307.23082	1.53964	74.26986	2311.49532	-68.99870	84.90209	2357.37626	-31.41969	71.29900	2191.46331	-150.92378	357.44545	2138.44651	-204.60183	342.04349	2005.05954	-205.62792	96.06567	1994.81744	-139.77352	116.20916	1971.24699	-182.15350	145.93329	2036.17152	-162.04226	70.40818	2265.92678	-42.02174	98.53672	2186.71866	-272.33666	444.03505	2293.83768	55.63395	457.63811	2079.18071	-272.19232	235.65754	2325.66131	53.05929	234.97747	
489	4.880	2141.39898	-77.70628	966.14510	2165.09320	-82.93975	775.90764	2275.70002	-62.38265	943.00090	2285.45870	-24.66895	630.63080	2268.14959	-199.50167	656.92072	2166.17153	-56.22282	677.21473	2161.62521	-126.32140	691.05065	2374.18749	-78.83933	391.20143	2346.09911	-18.03912	340.35037	2312.05632	1.39238	72.27316	2315.48141	-69.16970	83.19073	2361.90928	-32.08270	69.32240	2205.18956	-151.01435	354.09737	2151.54235	-203.97321	339.17607	2011.82302	-206.25542	97.03129	2002.16499	-140.53484	117.50562	1980.20635	-182.93579	148.22421	2040.90791	-162.48499	69.67964	2270.62114	-41.74337	96.92336	2198.28815	-271.91223	441.71027	2304.41589	55.50199	455.83190	2090.29343	-272.12461	234.69713	2333.19166	52.62500	232.66917	
490	4.890	2149.89715	-75.78025	964.27326	2176.03873	-83.23407	774.28800	2284.46007	-61.10974	942.20952	2296.50416	-24.02252	630.47044	2279.59313	-199.10651	654.54602	2177.18925	-56.46007	676.60073	2172.82550	-126.73960	689.28764	2381.50552	-78.97885	388.52237	2353.53948	-17.70576	338.31314	2315.39574	2.04397	70.75816	2317.93721	-68.53405	82.03065	2364.86500	-32.05044	67.68906	2219.58440	-151.04670	350.74920	2165.34151	-203.26928	336.19584	2019.60890	-206.89224	98.00890	2010.50807	-141.30019	118.78216	1990.30982	-183.71743	150.48588	2046.41383	-162.92943	68.91804	2273.89821	-40.58295	95.96837	2210.38593	-271.38243	439.35434	2314.30781	55.98259	454.55854	2102.36715	-272.00903	233.66740	2339.72004	53.01489	230.76782	
491	4.900	2158.41065	-74.11168	962.74094	2186.97358	-83.79996	773.04296	2293.20005	-59.86508	941.74797	2307.23092	-23.13350	630.75370	2291.14910	-198.50369	652.23550	2188.00762	-56.89297	676.45605	2183.98679	-127.36100	687.82805	2388.26559	-78.10293	386.24289	2360.18150	-16.51486	336.77765	2317.63205	3.53084	69.69555	2319.21049	-67.05139	81.40720	2366.60632	-31.29960	66.40761	2234.49426	-150.98558	347.51934	2179.70403	-202.49032	333.21501	2028.39387	-207.52150	99.02085	2019.81899	-142.03592	120.04111	2001.47758	-184.45398	152.69649	2052.74466	-163.37575	68.18728	2276.08780	-38.48314	95.60811	2222.94708	-270.73358	437.05148	2323.41331	57.11727	453.86556	2115.27232	-271.83212	232.64018	2345.38447	54.29150	229.27222	
492	4.910	2166.95534	-72.75874	961.60510	2197.83256	-84.61468	772.21602	2301.92915	-58.66524	941.62710	2317.57795	-21.99793	631.47279	2302.74984	-197.67485	650.06564	2198.57335	-57.49184	676.78661	2195.04749	-128.14853	686.71967	2394.41816	-76.20890	384.39670	2365.97345	-14.47304	335.76273	2319.11528	5.80271	69.03233	2319.63912	-64.76575	81.27642	2367.48083	-29.87401	65.46575	2249.77368	-150.78620	344.53102	2194.49923	-201.63061	330.35185	2038.13571	-208.13384	100.09823	2030.04476	-142.71762	121.29388	2013.59444	-185.11326	154.84569	2059.95973	-163.83096	67.56245	2277.49877	-35.48620	95.75126	2235.91060	-269.95107	434.89302	2331.66277	58.90068	453.75774	2128.88138	-271.58074	231.69758	2350.29989	56.43983	228.15388	
493	4.920	2175.54504	-71.76416	960.90758	2208.55610	-85.63996	771.83387	2310.65617	-57.52604	941.84810	2327.49887	-20.62230	632.59809	2314.32599	-196.61016	648.11242	2208.84628	-58.21502	677.57857	2205.95245	-129.05335	685.99809	2399.92338	-73.37729	382.98118	2370.88341	-11.65592	335.24858	2320.13079	8.72549	68.69979	2319.52573	-61.80433	81.56942	2367.79326	-27.87959	64.83399	2265.29553	-150.39808	341.90300	2209.61521	-200.67895	327.72143	2048.77954	-208.72596	101.27674	2041.11418	-143.33025	122.55840	2026.52013	-185.67513	156.93385	2068.12210	-164.30714	67.12267	2278.39317	-31.73637	96.28840	2249.22219	-269.02076	432.97036	2339.02518	61.27655	454.19748	2143.07791	-271.24260	230.92480	2354.54329	59.36446	227.36458	
494	4.930	2184.19127	-71.15209	960.67224	2219.09315	-86.82448	771.90429	2319.38938	-56.46165	942.40155	2336.96309	-19.02406	634.07989	2325.80967	-195.30997	646.44532	2218.80002	-59.01294	678.79869	2216.65487	-130.01930	685.68350	2404.75594	-69.76918	381.96345	2374.90610	-8.20457	335.18285	2320.88172	12.09514	68.62330	2319.12081	-58.36540	82.19963	2367.78731	-25.47206	64.47092	2280.95804	-149.77042	339.74071	2224.96484	-199.62030	325.42682	2060.26475	-209.29782	102.59098	2052.94693	-143.86637	123.85491	2040.10304	-186.12899	158.96898	2077.29613	-164.81863	66.94250	2278.97125	-27.46823	97.10374	2262.83531	-267.93064	431.36770	2345.51066	64.14015	455.11020	2157.76243	-270.80672	230.40246	2358.14799	62.89727	226.84598	
495	4.940	2192.90311	-70.92628	960.90314	2229.40337	-88.10777	772.41553	2328.13639	-55.48380	943.26695	2345.95559	-17.23114	635.85189	2337.13767	-193.78537	645.12149	2228.42147	-59.83360	680.39633	2227.11775	-130.98865	685.77866	2408.90889	-65.61181	381.28930	2378.06688	-4.31333	335.48999	2321.48621	15.66029	68.73166	2318.61507	-54.69709	83.07189	2367.63809	-22.83926	64.32886	2296.68814	-148.85859	338.12891	2240.48781	-198.43843	323.55190	2072.53167	-209.84946	104.06825	2065.46347	-144.32336	125.20110	2054.19583	-186.47013	160.96226	2087.54283	-165.37877	67.08299	2279.36782	-22.98249	98.08677	2276.71053	-266.67284	430.15539	2351.16701	67.34726	456.39350	2172.85487	-270.26414	230.19970	2361.10757	66.81477	226.53883	
